<?xml version="1.0" encoding="utf-8"?>
<svg xmlns="http://www.w3.org/2000/svg" xmlns:xlink="http://www.w3.org/1999/xlink" style="margin: auto; background: none; display: block; shape-rendering: auto;" width="200px" height="200px" viewBox="0 0 100 100" preserveAspectRatio="xMidYMid">
<g transform="rotate(0 50 50)">
  <rect x="43.5" y="11.5" rx="6.5" ry="6.84" width="13" height="19" fill="#ffffff">
    <animate attributeName="opacity" values="1;0" keyTimes="0;1" dur="3.3333333333333335s" begin="-2.9629629629629632s" repeatCount="indefinite"></animate>
  </rect>
</g><g transform="rotate(40 50 50)">
  <rect x="43.5" y="11.5" rx="6.5" ry="6.84" width="13" height="19" fill="#ffffff">
    <animate attributeName="opacity" values="1;0" keyTimes="0;1" dur="3.3333333333333335s" begin="-2.592592592592593s" repeatCount="indefinite"></animate>
  </rect>
</g><g transform="rotate(80 50 50)">
  <rect x="43.5" y="11.5" rx="6.5" ry="6.84" width="13" height="19" fill="#ffffff">
    <animate attributeName="opacity" values="1;0" keyTimes="0;1" dur="3.3333333333333335s" begin="-2.2222222222222223s" repeatCount="indefinite"></animate>
  </rect>
</g><g transform="rotate(120 50 50)">
  <rect x="43.5" y="11.5" rx="6.5" ry="6.84" width="13" height="19" fill="#ffffff">
    <animate attributeName="opacity" values="1;0" keyTimes="0;1" dur="3.3333333333333335s" begin="-1.851851851851852s" repeatCount="indefinite"></animate>
  </rect>
</g><g transform="rotate(160 50 50)">
  <rect x="43.5" y="11.5" rx="6.5" ry="6.84" width="13" height="19" fill="#ffffff">
    <animate attributeName="opacity" values="1;0" keyTimes="0;1" dur="3.3333333333333335s" begin="-1.4814814814814816s" repeatCount="indefinite"></animate>
  </rect>
</g><g transform="rotate(200 50 50)">
  <rect x="43.5" y="11.5" rx="6.5" ry="6.84" width="13" height="19" fill="#ffffff">
    <animate attributeName="opacity" values="1;0" keyTimes="0;1" dur="3.3333333333333335s" begin="-1.1111111111111112s" repeatCount="indefinite"></animate>
  </rect>
</g><g transform="rotate(240 50 50)">
  <rect x="43.5" y="11.5" rx="6.5" ry="6.84" width="13" height="19" fill="#ffffff">
    <animate attributeName="opacity" values="1;0" keyTimes="0;1" dur="3.3333333333333335s" begin="-0.7407407407407408s" repeatCount="indefinite"></animate>
  </rect>
</g><g transform="rotate(280 50 50)">
  <rect x="43.5" y="11.5" rx="6.5" ry="6.84" width="13" height="19" fill="#ffffff">
    <animate attributeName="opacity" values="1;0" keyTimes="0;1" dur="3.3333333333333335s" begin="-0.3703703703703704s" repeatCount="indefinite"></animate>
  </rect>
</g><g transform="rotate(320 50 50)">
  <rect x="43.5" y="11.5" rx="6.5" ry="6.84" width="13" height="19" fill="#ffffff">
    <animate attributeName="opacity" values="1;0" keyTimes="0;1" dur="3.3333333333333335s" begin="0s" repeatCount="indefinite"></animate>
  </rect>
</g>
<!-- [ldio] generated by https://loading.io/ --></svg>